<svg version="1.0" xmlns="http://www.w3.org/2000/svg"
 width="3325.000000pt" height="3759.000000pt" viewBox="0 0 3325.000000 3759.000000"
 preserveAspectRatio="xMidYMid meet">

<g transform="translate(0.000000,3759.000000) scale(0.100000,-0.100000)"
fill="#000000" stroke="none">
<path d="M11185 37543 c-203 -17 -408 -49 -561 -88 -183 -47 -404 -123 -404
-138 0 -5 -4 -6 -10 -2 -11 7 -232 -89 -340 -148 -41 -22 -84 -46 -95 -51 -11
-6 -34 -21 -52 -33 -17 -13 -34 -23 -38 -23 -19 0 -174 -103 -168 -112 3 -6 1
-8 -4 -5 -6 4 -21 -1 -34 -11 -13 -10 -32 -22 -42 -25 -11 -4 -15 -12 -11 -18
4 -7 3 -9 -3 -6 -12 8 -89 -51 -86 -64 2 -4 -5 -5 -14 -2 -12 5 -15 2 -11 -8
4 -11 0 -15 -16 -15 -12 1 -20 -4 -18 -12 1 -6 -4 -11 -10 -10 -7 2 -12 -2
-11 -9 2 -7 -3 -10 -10 -8 -19 7 -70 -43 -63 -62 5 -12 3 -13 -7 -5 -10 9 -30
-3 -87 -50 -99 -81 -155 -137 -155 -157 0 -9 -7 -16 -15 -16 -24 0 -59 -35
-55 -56 2 -11 1 -17 -4 -15 -4 3 -20 -4 -37 -16 -27 -19 -21 -19 24 -1 15 6
16 6 1 -9 -9 -9 -27 -18 -40 -21 l-24 -4 23 -8 c12 -4 22 -12 22 -17 0 -6 -8
-7 -17 -3 -37 16 -65 11 -74 -13 -8 -20 -7 -21 12 -11 17 9 20 8 17 -2 -3 -8
-21 -18 -40 -24 -20 -5 -40 -14 -45 -19 -4 -5 -4 -7 2 -4 6 3 17 -1 24 -10 13
-14 12 -15 -7 -10 -12 4 -22 2 -22 -3 0 -17 33 -9 54 14 12 12 31 27 42 33 16
9 17 14 6 27 -12 15 -2 33 12 20 15 -15 4 -50 -21 -66 l-28 -18 26 5 c31 7 38
-5 32 -51 -5 -29 -9 -33 -49 -39 -24 -3 -51 -4 -59 0 -13 5 -15 -144 -15
-1348 0 -1345 0 -1354 20 -1359 20 -5 22 -13 23 -91 1 -34 2 -36 14 -20 7 10
13 23 13 28 0 6 -5 4 -10 -4 -8 -13 -10 -13 -10 1 0 23 11 30 27 18 9 -9 13
-8 13 0 0 6 -4 11 -9 11 -5 0 -11 14 -13 30 -3 17 -1 30 4 30 4 0 8 -9 8 -19
0 -10 7 -21 15 -25 13 -4 14 -2 5 14 -7 14 -7 20 0 20 5 0 11 19 11 43 1 23 3
35 6 25 7 -28 31 -28 49 0 9 15 13 23 8 19 -4 -4 -14 3 -21 15 -12 21 -13 20
-8 -17 5 -32 3 -37 -7 -27 -7 7 -12 31 -12 53 1 27 -2 36 -7 28 -7 -11 -9 -11
-8 1 1 20 17 58 18 42 1 -7 6 -10 13 -6 7 5 8 3 4 -5 -9 -14 12 -71 25 -71 12
0 11 17 -1 40 -10 19 2 22 27 7 15 -9 23 13 12 35 -7 13 -5 15 11 11 16 -4 19
-2 13 12 -4 13 -3 16 5 11 7 -4 12 -3 12 3 0 5 -5 11 -11 13 -12 4 -1 38 13
38 6 0 7 -8 4 -17 -4 -11 5 -6 20 11 15 17 24 36 21 47 -3 11 -2 17 3 14 12
-8 27 18 25 43 -1 15 2 19 8 13 16 -16 48 40 33 58 -8 11 -8 13 0 8 6 -3 17 5
24 18 7 13 18 22 23 18 6 -4 7 -1 2 7 -5 8 3 21 21 37 16 13 22 22 14 18 -10
-4 -10 -2 2 8 14 11 15 16 5 26 -9 10 -8 11 6 6 10 -4 17 -2 17 4 0 6 13 25
30 42 16 18 27 35 25 39 -3 4 2 11 11 14 9 4 14 13 10 22 -3 8 -2 13 3 10 9
-6 67 74 63 87 -1 4 5 10 13 13 8 4 15 12 15 20 0 8 3 14 8 14 8 0 68 79 65
85 -1 3 18 25 42 51 25 26 46 50 46 55 1 5 2 13 3 18 0 5 5 13 10 18 6 5 6 2
1 -7 -8 -13 -7 -13 9 -1 9 8 15 20 12 28 -3 8 -2 11 3 8 12 -7 42 35 34 48 -3
6 -2 7 4 4 6 -4 30 17 54 46 46 54 126 144 213 237 65 69 261 250 343 315 237
190 449 312 674 389 176 60 250 71 459 70 173 0 192 -2 300 -31 149 -40 257
-83 387 -155 310 -173 599 -432 938 -843 77 -94 281 -387 381 -548 154 -247
205 -335 329 -574 27 -51 51 -93 54 -93 4 0 8 -10 8 -22 1 -13 9 -28 18 -34 9
-7 15 -14 13 -16 -7 -9 116 -257 125 -251 6 3 7 1 4 -4 -7 -12 5 -46 59 -161
19 -41 34 -78 34 -83 0 -6 5 -7 12 -3 7 4 8 3 4 -4 -4 -6 7 -40 23 -75 16 -35
33 -75 36 -90 4 -15 12 -24 18 -20 6 4 8 0 4 -10 -3 -9 0 -23 8 -31 8 -7 12
-16 9 -19 -6 -6 17 -57 26 -57 5 0 8 -6 7 -12 -1 -35 4 -49 15 -42 7 4 8 3 4
-4 -4 -7 0 -26 8 -44 8 -18 26 -64 41 -103 15 -38 33 -83 40 -100 7 -16 16
-43 19 -58 4 -15 10 -25 15 -23 5 3 9 0 8 -7 -1 -39 4 -58 15 -51 7 4 8 3 4
-5 -10 -16 3 -53 16 -45 7 4 8 2 4 -4 -9 -15 25 -123 36 -116 5 4 9 0 7 -7 -4
-31 1 -50 12 -43 8 4 9 0 4 -15 -4 -13 -2 -21 5 -21 7 0 10 -6 7 -14 -3 -8 -2
-16 3 -18 4 -2 10 -16 13 -33 9 -54 19 -85 28 -85 5 0 6 -7 3 -15 -4 -8 -1
-15 6 -15 6 0 9 -4 6 -8 -7 -12 15 -82 26 -82 5 0 6 -5 2 -11 -3 -6 -2 -21 4
-32 6 -12 18 -48 28 -79 9 -32 21 -58 27 -58 5 0 7 -9 4 -20 -3 -11 0 -26 7
-33 7 -7 11 -18 8 -26 -3 -8 0 -11 7 -7 6 4 11 2 11 -3 0 -6 -4 -11 -10 -11
-8 0 0 -28 38 -140 3 -8 6 -21 8 -29 8 -40 29 -101 35 -101 6 0 16 -43 21 -92
1 -10 6 -18 11 -18 5 0 6 -8 3 -17 -4 -10 -4 -14 0 -10 4 3 16 -10 26 -30 15
-27 17 -38 7 -43 -9 -6 -7 -17 9 -42 13 -21 18 -38 13 -44 -13 -13 14 -110 29
-106 8 2 11 -4 7 -17 -3 -11 1 -22 9 -25 11 -4 11 -11 4 -32 -6 -16 -7 -30 -2
-33 5 -3 12 -24 16 -46 4 -22 13 -46 19 -54 10 -12 9 -13 -1 -7 -11 7 -12 4
-3 -13 7 -12 9 -26 6 -31 -3 -6 -1 -10 5 -10 7 0 9 -9 5 -22 -4 -16 -3 -19 3
-10 13 18 20 -1 17 -46 -1 -23 2 -31 11 -28 10 4 11 0 2 -20 -9 -18 -9 -27 0
-36 7 -7 13 -23 13 -37 1 -25 2 -25 10 4 7 27 8 26 5 -11 -2 -22 1 -48 6 -57
6 -12 5 -17 -3 -17 -8 0 -9 -3 0 -13 6 -8 8 -17 4 -20 -3 -4 2 -15 11 -26 9
-10 13 -21 8 -22 -4 -2 -5 -15 -1 -29 l7 -25 1 25 c1 14 6 32 11 40 9 13 11
13 20 0 7 -11 10 -11 10 -2 0 7 5 10 11 6 8 -4 7 -9 -2 -16 -11 -7 -11 -11 -1
-15 18 -7 15 -22 -5 -19 -10 2 -18 8 -18 14 0 28 -13 19 -17 -12 -3 -24 -1
-33 6 -26 13 13 26 13 26 -1 0 -5 -4 -8 -8 -5 -4 2 -8 -11 -8 -29 0 -21 3 -30
8 -22 5 8 8 7 8 -5 0 -11 -7 -18 -17 -18 -15 0 -15 -2 -4 -9 8 -5 11 -16 7
-26 -4 -11 -2 -15 6 -12 7 2 12 15 10 28 -1 19 0 21 8 9 5 -8 7 -26 5 -40 -3
-14 -2 -19 1 -12 8 16 24 15 24 -2 0 -18 20 -25 44 -16 17 6 17 7 3 13 -18 7
-34 88 -21 108 4 7 9 47 11 88 4 100 6 111 15 111 4 0 8 1098 8 2440 0 1620
-3 2440 -10 2440 -5 0 -10 18 -10 40 0 38 -2 40 -32 42 -18 0 -39 1 -45 1 -7
-1 -13 7 -13 17 0 10 -7 26 -16 34 -14 15 -14 16 0 16 13 0 16 11 16 51 0 28
5 59 10 70 14 24 -7 70 -21 48 -5 -8 -9 -9 -9 -4 0 6 -5 3 -10 -5 -6 -10 -10
-11 -10 -2 0 19 4 27 12 25 5 -2 8 7 8 20 0 18 -2 19 -10 7 -8 -13 -10 -12
-11 5 -1 11 -1 23 -1 27 1 3 -5 12 -13 18 -12 10 -18 10 -29 1 -12 -10 -14 -9
-11 6 1 10 8 17 15 15 6 -1 9 2 6 6 -3 5 -16 8 -29 7 -17 -2 -23 2 -23 17 0
17 2 17 12 4 6 -9 14 -13 17 -10 9 10 -22 37 -36 31 -7 -3 -13 3 -13 14 0 10
5 15 11 11 6 -4 4 0 -5 8 -9 8 -19 23 -23 34 -7 18 -8 17 -27 -4 -11 -13 -20
-19 -20 -13 0 5 3 13 8 17 13 13 9 30 -14 62 -13 17 -20 35 -16 39 4 5 1 5 -5
1 -8 -4 -13 -1 -13 8 0 9 -5 16 -11 16 -5 0 -7 -6 -3 -12 6 -10 4 -10 -8 0 -9
7 -14 21 -11 30 2 10 -4 26 -15 35 -15 14 -25 16 -46 7 -18 -6 -25 -6 -21 0 3
6 12 10 20 10 8 0 17 5 21 12 4 6 3 8 -3 5 -6 -4 -13 3 -16 14 -3 12 -10 18
-17 14 -7 -4 -10 -1 -9 6 4 17 -22 59 -35 59 -5 0 -1 -10 10 -22 l19 -23 -22
19 c-13 11 -23 25 -23 33 0 8 -4 12 -8 9 -4 -2 -9 5 -9 16 -1 12 -11 31 -23
42 -16 16 -19 17 -15 5 4 -10 2 -19 -2 -22 -5 -3 -9 9 -9 26 1 20 -4 31 -12
29 -6 -1 -11 2 -10 7 5 14 -124 151 -135 144 -6 -3 -7 -1 -3 5 12 20 -4 35
-22 20 -11 -9 -14 -9 -9 -1 8 13 -22 68 -31 58 -3 -2 -11 3 -19 13 -8 9 -11
11 -7 3 5 -9 3 -12 -5 -7 -6 4 -9 11 -6 16 3 5 -19 34 -48 65 -30 30 -52 55
-49 55 3 0 -3 6 -13 14 -11 8 -23 12 -28 9 -4 -2 -6 0 -5 6 4 14 -152 162
-163 155 -5 -3 -8 -1 -7 4 4 14 -111 114 -123 106 -5 -3 -8 0 -7 8 2 7 -3 12
-10 10 -8 -1 -11 2 -7 7 3 6 -18 28 -47 49 -29 21 -59 46 -67 55 -7 9 -17 14
-22 11 -5 -3 -9 -1 -9 5 0 13 -364 271 -384 271 -2 0 -40 22 -84 50 -339 210
-814 384 -1232 451 -193 31 -525 46 -695 32z m-2031 -875 c-5 -7 -2 -9 9 -5
10 4 14 2 11 -7 -5 -14 -34 -18 -34 -4 0 5 -5 6 -10 3 -6 -4 -8 -10 -5 -15 3
-5 0 -12 -6 -15 -5 -4 -8 -14 -5 -22 3 -8 1 -11 -4 -8 -14 9 -12 -9 3 -24 10
-11 8 -11 -10 0 -15 9 -19 17 -13 23 16 16 12 26 -7 19 -10 -4 2 10 25 30 45
38 58 45 46 25z m-103 -81 c-6 -8 -8 -17 -4 -20 3 -4 2 -7 -4 -7 -19 0 -22 13
-5 26 22 17 27 17 13 1z m-51 -56 c0 -5 -15 -17 -32 -25 l-33 -16 30 25 c34
28 35 29 35 16z m20 -21 c0 -5 -5 -10 -11 -10 -5 0 -7 5 -4 10 3 6 8 10 11 10
2 0 4 -4 4 -10z m-65 -59 c-3 -6 -11 -11 -17 -11 -6 0 -6 6 2 15 14 17 26 13
15 -4z m-58 -53 c-3 -8 -6 -5 -6 6 -1 11 2 17 5 13 3 -3 4 -12 1 -19z m-22
-57 c-3 -6 -14 -11 -23 -11 -13 0 -13 2 4 14 21 15 30 14 19 -3z m5476 -328
c13 -16 12 -17 -3 -4 -10 7 -18 15 -18 17 0 8 8 3 21 -13z m-5592 -1135 c0
-612 -4 -1135 -9 -1163 l-7 -50 -2 43 c0 23 -5 42 -11 42 -7 0 -10 380 -10
1120 0 1113 0 1120 20 1120 20 0 20 -6 19 -1112z m5616 1062 c3 -5 1 -10 -4
-10 -6 0 -11 5 -11 10 0 6 2 10 4 10 3 0 8 -4 11 -10z m310 -370 c3 -5 1 -10
-4 -10 -6 0 -11 5 -11 10 0 6 2 10 4 10 3 0 8 -4 11 -10z m78 -102 c7 -27 1
-38 -21 -37 -15 1 -15 2 1 6 9 2 17 9 17 14 0 6 -4 8 -8 5 -4 -2 -8 4 -8 15 0
26 12 24 19 -3z m177 -228 c0 -5 -2 -10 -4 -10 -3 0 -8 5 -11 10 -3 6 -1 10 4
10 6 0 11 -4 11 -10z m-21 -40 c0 -10 -3 -8 -9 5 -12 27 -12 43 0 25 5 -8 9
-22 9 -30z m-5679 -976 c0 -8 -19 -13 -24 -6 -3 5 1 9 9 9 8 0 15 -2 15 -3z
m48 -2 c15 12 16 11 3 -4 -14 -19 -32 -15 -30 5 0 8 2 8 6 -1 4 -10 8 -10 21
0z m-60 -42 c-7 -10 -14 -17 -17 -15 -4 4 18 35 25 35 2 0 -1 -9 -8 -20z
m-175 -205 c-3 -9 -8 -14 -10 -11 -3 3 -2 9 2 15 9 16 15 13 8 -4z m1 -41 c3
-8 2 -12 -4 -9 -6 3 -10 10 -10 16 0 14 7 11 14 -7z m16 -28 c0 -3 -4 -8 -10
-11 -5 -3 -10 -1 -10 4 0 6 5 11 10 11 6 0 10 -2 10 -4z m-86 -94 c3 -5 -1 -9
-9 -9 -8 0 -12 4 -9 9 3 4 7 8 9 8 2 0 6 -4 9 -8z m-160 -105 c5 -25 4 -37 -3
-33 -5 3 -12 0 -14 -6 -3 -7 -6 1 -6 19 -1 29 8 68 14 61 1 -2 5 -20 9 -41z
m91 3 c-12 -19 -22 -10 -17 16 4 22 6 24 14 10 5 -9 6 -21 3 -26z m55 20 c0
-5 -2 -10 -4 -10 -3 0 -8 5 -11 10 -3 6 -1 10 4 10 6 0 11 -4 11 -10z m-15
-29 c-6 -5 -25 10 -25 20 0 5 6 4 14 -3 8 -7 12 -15 11 -17z m-55 -47 c0 -8
-5 -12 -10 -9 -6 4 -8 11 -5 16 9 14 15 11 15 -7z m-53 -16 c-3 -8 -6 -5 -6 6
-1 11 2 17 5 13 3 -3 4 -12 1 -19z m-100 -110 c-2 -13 -4 -3 -4 22 0 25 2 35
4 23 2 -13 2 -33 0 -45z m-10 -130 c-3 -8 -6 -5 -6 6 -1 11 2 17 5 13 3 -3 4
-12 1 -19z m5893 -2262 c0 -6 -7 -1 -15 10 -8 10 -15 23 -15 28 0 6 7 1 15
-10 8 -10 15 -23 15 -28z m-20 -5 c7 -15 7 -22 -2 -27 -7 -4 -10 -4 -6 1 4 4
3 16 -3 26 -5 11 -7 19 -5 19 3 0 10 -9 16 -19z m80 -242 c0 -6 -4 -7 -10 -4
-5 3 -10 11 -10 16 0 6 5 7 10 4 6 -3 10 -11 10 -16z m20 -52 c0 -5 -4 -5 -10
-2 -5 3 -10 14 -10 23 0 15 2 15 10 2 5 -8 10 -19 10 -23z m62 -232 c3 -14 1
-28 -3 -31 -5 -3 -9 9 -9 25 0 38 6 40 12 6z m15 -157 c-3 -7 -5 -2 -5 12 0
14 2 19 5 13 2 -7 2 -19 0 -25z m80 -160 c-3 -8 -6 -5 -6 6 -1 11 2 17 5 13 3
-3 4 -12 1 -19z m10 -65 c-3 -10 -5 -4 -5 12 0 17 2 24 5 18 2 -7 2 -21 0 -30z
m-17 -39 c0 -8 -5 -12 -10 -9 -6 4 -8 11 -5 16 9 14 15 11 15 -7z m100 -150
c0 -31 -2 -35 -15 -24 -8 7 -15 23 -15 36 0 15 6 24 15 24 11 0 15 -11 15 -36z
m40 -4 c0 -22 -4 -40 -10 -40 -5 0 -10 18 -10 40 0 22 5 40 10 40 6 0 10 -18
10 -40z m-10 -161 c0 -32 -4 -39 -19 -39 -12 0 -21 9 -25 26 -10 38 1 63 24
57 16 -4 20 -14 20 -44z"/>
<path d="M14951 29874 c0 -11 3 -14 6 -6 3 7 2 16 -1 19 -3 4 -6 -2 -5 -13z"/>
<path d="M8650 36215 c-8 -9 -8 -15 -2 -15 12 0 26 19 19 26 -2 2 -10 -2 -17
-11z"/>
<path d="M8651 36187 c-26 -13 -40 -37 -21 -37 6 0 8 5 5 10 -3 6 -2 10 4 10
5 0 12 -6 14 -12 3 -8 6 -6 6 5 1 9 8 17 16 17 8 0 15 5 15 10 0 13 -10 12
-39 -3z"/>
<path d="M8700 36180 c0 -5 -8 -10 -17 -11 -15 0 -15 -2 2 -9 29 -13 31 -12
31 10 0 11 -4 20 -8 20 -4 0 -8 -4 -8 -10z"/>
<path d="M8608 36133 c6 -2 18 -2 25 0 6 3 1 5 -13 5 -14 0 -19 -2 -12 -5z"/>
<path d="M8614 36095 c-10 -20 -9 -27 5 -37 14 -12 15 -11 2 5 -7 9 -9 17 -3
17 5 0 12 9 15 20 7 28 -6 25 -19 -5z"/>
<path d="M8535 36080 c-3 -6 1 -7 9 -4 18 7 21 14 7 14 -6 0 -13 -4 -16 -10z"/>
<path d="M8543 36045 c-3 -9 -3 -18 -1 -21 3 -3 8 4 11 16 6 23 -1 27 -10 5z"/>
<path d="M8506 36033 c-6 -14 -5 -15 5 -6 7 7 10 15 7 18 -3 3 -9 -2 -12 -12z"/>
<path d="M8280 35775 c0 -2 6 -8 13 -14 10 -8 14 -7 14 2 0 8 -6 14 -14 14 -7
0 -13 -1 -13 -2z"/>
<path d="M14955 35218 c-10 -35 -14 -85 -6 -97 11 -17 19 -3 17 29 -1 14 2 30
6 37 5 6 5 14 -2 18 -6 3 -8 11 -5 16 4 5 4 9 0 9 -3 0 -7 -6 -10 -12z"/>
<path d="M14986 35161 c3 -13 2 -21 -3 -18 -7 4 -9 -17 -4 -54 2 -16 31 -16
43 -1 7 9 8 13 2 9 -15 -9 -23 12 -20 47 2 14 0 23 -5 21 -4 -3 -10 1 -13 7
-3 7 -3 2 0 -11z"/>
<path d="M15017 35133 c-10 -9 -9 -23 1 -23 5 0 9 7 9 15 0 17 -1 18 -10 8z"/>
<path d="M15040 35062 c0 -6 4 -14 10 -17 5 -3 14 -20 19 -38 8 -26 9 -28 10
-9 1 13 -8 35 -19 49 -11 14 -20 21 -20 15z"/>
<path d="M15090 35011 c0 -5 5 -13 10 -16 6 -3 10 -2 10 4 0 5 -4 13 -10 16
-5 3 -10 2 -10 -4z"/>
<path d="M15048 34983 c-4 -14 0 -24 8 -27 15 -6 16 -1 5 28 -7 19 -8 19 -13
-1z"/>
<path d="M15085 34969 c-4 -6 -5 -12 -2 -15 2 -3 7 2 10 11 7 17 1 20 -8 4z"/>
<path d="M15126 34941 c-4 -6 -2 -20 4 -31 6 -11 8 -26 4 -33 -5 -9 -4 -9 5
-1 10 9 10 17 2 32 -16 29 -13 40 4 18 8 -11 17 -17 20 -14 3 2 -3 13 -14 22
-12 11 -21 14 -25 7z"/>
<path d="M15088 34863 c7 -3 16 -2 19 1 4 3 -2 6 -13 5 -11 0 -14 -3 -6 -6z"/>
<path d="M15230 34781 c13 -26 13 -34 -2 -25 -7 4 -8 3 -4 -5 6 -9 11 -9 21
-1 11 9 11 15 -3 31 -21 24 -26 24 -12 0z"/>
<path d="M15204 34740 c1 -14 6 -24 9 -22 11 4 11 6 -1 27 -11 19 -12 18 -8
-5z"/>
<path d="M15245 34729 c-4 -6 -5 -12 -2 -15 2 -3 7 2 10 11 7 17 1 20 -8 4z"/>
<path d="M15257 34705 c-4 -8 -2 -17 3 -20 6 -4 10 3 10 14 0 25 -6 27 -13 6z"/>
<path d="M15296 34661 c-4 -5 -3 -16 0 -25 3 -9 1 -23 -6 -31 -7 -8 -8 -15 -3
-15 6 0 15 10 21 23 10 21 11 21 11 2 1 -12 -5 -27 -11 -35 -11 -12 -10 -12 5
-1 9 7 17 22 17 32 0 10 -8 23 -17 28 -16 9 -16 12 -3 21 9 6 10 10 3 10 -6 0
-14 -4 -17 -9z"/>
<path d="M15374 34522 c4 -3 14 -7 22 -8 9 -1 13 0 10 4 -4 3 -14 7 -22 8 -9
1 -13 0 -10 -4z"/>
<path d="M25285 34511 c-3 -5 -2 -12 3 -15 5 -3 9 1 9 9 0 17 -3 19 -12 6z"/>
<path d="M15380 34485 c-11 -13 -10 -14 4 -9 9 3 16 10 16 15 0 13 -6 11 -20
-6z"/>
<path d="M15453 34398 c-7 -12 -13 -78 -6 -78 1 0 7 10 14 21 8 15 8 19 0 15
-12 -8 -11 21 2 42 5 6 6 12 3 12 -3 0 -8 -6 -13 -12z"/>
<path d="M15470 34329 c0 -5 5 -7 10 -4 6 3 10 8 10 11 0 2 -4 4 -10 4 -5 0
-10 -5 -10 -11z"/>
<path d="M25319 34293 c-13 -17 -13 -17 6 -3 11 8 22 16 24 17 2 2 0 3 -6 3
-6 0 -17 -8 -24 -17z"/>
<path d="M25360 34290 c-6 -11 -8 -20 -6 -20 3 0 10 9 16 20 6 11 8 20 6 20
-3 0 -10 -9 -16 -20z"/>
<path d="M15606 34057 c3 -10 9 -15 12 -12 3 3 0 11 -7 18 -10 9 -11 8 -5 -6z"/>
<path d="M15618 34008 c-7 -17 15 -19 29 -3 4 4 3 5 -4 2 -6 -4 -13 -2 -15 5
-3 8 -6 6 -10 -4z"/>
<path d="M25610 33655 l25 -14 -32 -1 c-18 0 -33 -5 -33 -11 0 -5 4 -8 9 -5 5
4 17 3 26 0 11 -5 13 -9 5 -14 -7 -4 -11 -58 -13 -153 -2 -119 1 -146 11 -142
8 3 16 5 18 5 3 0 3 4 -1 9 -8 14 35 25 47 13 8 -8 4 -9 -13 -6 -13 2 -18 1
-10 -2 11 -5 8 -10 -10 -20 -13 -7 -19 -13 -14 -13 16 0 74 33 77 44 2 6 5 9
8 8 3 -1 7 7 7 18 2 23 -1 24 -23 2 -20 -20 -20 -22 3 34 5 12 3 14 -7 8 -8
-5 -11 -4 -6 3 7 11 26 10 60 -4 13 -5 17 -4 12 4 -3 6 -2 13 2 16 12 7 13 96
1 96 -5 0 -9 -5 -9 -12 0 -6 -3 -8 -6 -5 -4 4 -1 13 5 21 7 8 9 21 5 27 -5 9
-10 7 -16 -7 -6 -14 -7 -12 -3 9 5 27 -9 38 -19 15 -3 -7 -3 -1 -1 14 2 15 0
30 -5 33 -13 8 -41 -6 -34 -17 4 -6 10 -5 15 3 5 9 7 0 6 -23 -2 -21 -7 -41
-11 -45 -4 -5 -5 4 -1 18 8 30 -20 63 -35 40 -4 -8 -10 -9 -13 -4 -4 6 5 15
18 21 39 18 31 38 -12 33 -7 -1 -13 2 -13 6 0 5 -10 9 -22 10 -22 2 -22 1 2
-12z m60 -19 c0 -2 -9 -6 -20 -9 -11 -3 -18 -1 -14 4 5 9 34 13 34 5z m50
-100 c0 -8 -7 -16 -15 -20 -13 -4 -14 -2 -5 14 13 23 20 26 20 6z"/>
<path d="M25493 33625 c0 -29 12 -41 23 -24 4 8 3 9 -4 5 -21 -13 -13 5 11 25
12 10 16 18 10 19 -7 0 -13 -4 -13 -10 0 -5 -5 -10 -11 -10 -5 0 -7 5 -4 10 3
6 2 10 -3 10 -5 0 -9 -11 -9 -25z"/>
<path d="M25467 33633 c-4 -3 -7 -11 -7 -17 0 -6 5 -5 12 2 6 6 9 14 7 17 -3
3 -9 2 -12 -2z"/>
<path d="M25540 33599 c0 -5 5 -7 10 -4 6 3 10 8 10 11 0 2 -4 4 -10 4 -5 0
-10 -5 -10 -11z"/>
<path d="M8860 33571 c0 -6 4 -13 10 -16 6 -3 7 1 4 9 -7 18 -14 21 -14 7z"/>
<path d="M25420 33558 c14 -16 13 -31 -2 -22 -7 5 -8 3 -3 -5 5 -9 10 -10 18
-2 8 8 6 15 -6 26 -9 8 -12 10 -7 3z"/>
<path d="M8691 33405 c-18 -38 -21 -54 -12 -59 18 -11 32 13 29 50 l-4 39 -13
-30z"/>
<path d="M25706 33404 c-3 -8 -2 -12 3 -9 6 3 14 -3 20 -12 9 -16 10 -16 11 3
0 26 -26 39 -34 18z"/>
<path d="M25421 33388 c5 -10 11 -18 12 -18 2 0 3 8 3 18 0 10 -6 19 -13 19
-8 0 -9 -6 -2 -19z"/>
<path d="M25466 33341 c5 -6 9 -7 35 -10 5 0 7 -5 4 -11 -3 -6 1 -7 10 -4 26
10 11 28 -24 30 -17 1 -29 -2 -25 -5z"/>
<path d="M25540 33310 c0 -11 48 -25 57 -16 4 3 -4 6 -16 6 -12 0 -19 4 -16
10 3 6 -1 10 -9 10 -9 0 -16 -4 -16 -10z"/>
<path d="M8690 33275 c-7 -8 -16 -13 -20 -10 -5 3 -12 0 -16 -6 -4 -8 -3 -9 4
-5 12 7 16 -5 12 -33 -1 -7 10 -1 24 14 31 33 32 37 9 28 -16 -6 -16 -5 -4 10
7 9 11 17 8 17 -2 0 -10 -7 -17 -15z"/>
<path d="M8649 33198 c-5 -19 -8 -50 -4 -46 7 7 15 48 9 48 -2 0 -4 -1 -5 -2z"/>
<path d="M8586 33098 c3 -5 10 -6 15 -3 13 9 11 12 -6 12 -8 0 -12 -4 -9 -9z"/>
<path d="M8580 33076 c0 -2 8 -10 18 -17 15 -13 16 -12 3 4 -13 16 -21 21 -21
13z"/>
<path d="M8561 33025 c0 -5 3 -16 8 -23 7 -11 9 -10 14 3 4 9 3 14 -2 10 -5
-3 -12 1 -14 7 -3 7 -6 9 -6 3z"/>
<path d="M25844 32757 c-56 -21 -124 -90 -103 -103 8 -5 10 -3 4 6 -5 9 -4 11
4 6 17 -11 3 -26 -17 -19 -15 6 -15 5 -3 -10 7 -9 9 -17 3 -17 -5 0 -12 -7
-16 -15 -3 -8 -2 -14 2 -14 19 3 22 -2 9 -16 -13 -12 -13 -21 -4 -52 13 -41
91 -128 107 -118 6 3 10 2 10 -3 0 -16 67 -24 107 -12 57 15 69 25 54 43 -9
12 -9 17 0 23 7 4 9 3 6 -3 -4 -6 -1 -16 7 -22 16 -14 34 5 64 70 24 50 27 77
12 130 -13 45 -85 123 -106 115 -10 -4 -12 -2 -8 6 5 8 2 9 -9 5 -9 -3 -19 -2
-22 3 -8 13 -55 13 -55 0 0 -5 -5 -10 -11 -10 -5 0 -7 5 -4 10 7 12 8 12 -31
-3z m20 -16 c4 -5 -3 -7 -14 -4 -23 6 -26 13 -6 13 8 0 17 -4 20 -9z m-30 -19
c2 -4 -4 -8 -14 -8 -10 0 -16 4 -14 8 3 4 9 8 14 8 5 0 11 -4 14 -8z m224 -66
c-7 -8 -15 -12 -17 -11 -5 6 10 25 20 25 5 0 4 -6 -3 -14z m-306 -126 c5 -32
-7 -42 -14 -12 -4 16 0 42 7 42 1 0 5 -13 7 -30z m291 -63 c3 -8 -1 -14 -8
-14 -7 0 -11 6 -8 14 3 7 6 13 8 13 2 0 5 -6 8 -13z m-235 -16 c-7 -9 -13 -18
-15 -20 -1 -2 -1 5 0 16 0 11 7 20 14 20 10 0 10 -4 1 -16z m29 -11 c1 -13 -4
-20 -15 -20 -15 0 -15 2 -2 10 8 5 11 10 7 10 -5 0 -5 5 -2 10 9 14 11 13 12
-10z"/>
<path d="M26113 31840 c-33 -14 -74 -53 -69 -67 3 -7 -1 -10 -8 -7 -8 3 -17 0
-22 -7 -5 -8 -3 -10 6 -4 7 4 3 -6 -10 -23 -19 -26 -22 -40 -18 -90 8 -108 74
-173 184 -180 42 -3 64 -1 64 7 0 5 7 8 15 5 8 -4 33 13 64 44 40 40 51 58 56
96 4 25 4 62 1 81 -8 42 -67 121 -89 119 -10 -1 -14 3 -10 9 4 6 0 8 -11 4 -9
-4 -15 -3 -12 2 13 21 -96 29 -141 11z"/>
<path d="M26334 30901 c-44 -20 -88 -67 -77 -84 3 -5 1 -7 -5 -3 -12 7 -29
-43 -31 -96 -2 -41 30 -116 60 -144 10 -9 19 -14 19 -11 0 4 9 -2 19 -12 23
-23 99 -37 138 -26 16 5 33 9 40 11 28 5 88 62 104 99 37 81 14 188 -52 237
-51 37 -63 44 -55 27 4 -8 1 -6 -7 4 -19 23 -99 22 -153 -2z"/>
<path d="M14666 30815 c4 -8 8 -15 10 -15 2 0 4 7 4 15 0 8 -4 15 -10 15 -5 0
-7 -7 -4 -15z"/>
<path d="M14740 30539 c0 -5 5 -7 10 -4 6 3 10 8 10 11 0 2 -4 4 -10 4 -5 0
-10 -5 -10 -11z"/>
<path d="M26572 29976 c-89 -23 -152 -104 -152 -195 0 -64 11 -91 56 -140 90
-101 252 -82 321 37 91 154 -52 343 -225 298z"/>
<path d="M14900 29880 c0 -5 5 -10 10 -10 6 0 10 5 10 10 0 6 -4 10 -10 10 -5
0 -10 -4 -10 -10z"/>
<path d="M14946 29737 c3 -10 9 -15 12 -12 3 3 0 11 -7 18 -10 9 -11 8 -5 -6z"/>
<path d="M15007 29583 c-4 -3 -7 -18 -6 -32 1 -26 1 -25 10 3 9 31 7 41 -4 29z"/>
<path d="M14976 29547 c3 -10 9 -15 12 -12 3 3 0 11 -7 18 -10 9 -11 8 -5 -6z"/>
<path d="M15017 29521 c-3 -13 -10 -21 -14 -18 -5 3 -6 -11 -4 -31 l6 -37 4
35 c4 32 4 33 11 10 l6 -25 5 26 c3 14 3 34 -1 44 -6 17 -7 17 -13 -4z"/>
<path d="M15019 29438 c-5 -17 -5 -56 1 -67 5 -9 7 3 7 27 -1 35 -4 51 -8 40z"/>
<path d="M15038 29263 c6 -2 18 -2 25 0 6 3 1 5 -13 5 -14 0 -19 -2 -12 -5z"/>
<path d="M15148 29243 c5 -21 7 -23 10 -9 2 10 0 22 -6 28 -6 6 -7 0 -4 -19z"/>
<path d="M15050 29210 c0 -6 7 -10 15 -10 8 0 15 2 15 4 0 2 -7 6 -15 10 -8 3
-15 1 -15 -4z"/>
<path d="M15082 29160 c0 -14 2 -19 5 -12 2 6 2 18 0 25 -3 6 -5 1 -5 -13z"/>
<path d="M15087 29104 c-11 -11 -8 -26 3 -19 7 4 9 -3 5 -22 -5 -26 -5 -26 5
-5 10 24 0 59 -13 46z"/>
<path d="M26710 29024 c-43 -19 -81 -54 -73 -67 3 -6 1 -7 -5 -3 -13 8 -46
-50 -37 -64 3 -6 1 -10 -4 -10 -14 0 -14 -68 1 -111 15 -45 47 -91 59 -83 5 3
8 0 7 -6 -5 -23 73 -55 132 -54 189 2 280 228 144 356 -60 56 -152 73 -224 42z"/>
<path d="M15111 28984 c0 -11 3 -14 6 -6 3 7 2 16 -1 19 -3 4 -6 -2 -5 -13z"/>
<path d="M15182 28770 c0 -14 2 -19 5 -12 2 6 2 18 0 25 -3 6 -5 1 -5 -13z"/>
<path d="M15160 28665 c0 -8 2 -15 4 -15 2 0 6 7 10 15 3 8 1 15 -4 15 -6 0
-10 -7 -10 -15z"/>
<path d="M15186 28617 c3 -10 9 -15 12 -12 3 3 0 11 -7 18 -10 9 -11 8 -5 -6z"/>
<path d="M15182 28566 c1 -14 5 -23 9 -20 7 4 0 44 -7 44 -2 0 -3 -11 -2 -24z"/>
<path d="M15180 28481 c0 -6 4 -13 10 -16 6 -3 7 1 4 9 -7 18 -14 21 -14 7z"/>
<path d="M15255 28190 c3 -5 8 -10 11 -10 2 0 4 5 4 10 0 6 -5 10 -11 10 -5 0
-7 -4 -4 -10z"/>
<path d="M15247 28155 c-4 -8 -2 -17 2 -20 5 -2 11 4 14 15 6 23 -8 27 -16 5z"/>
<path d="M15258 28113 c7 -3 16 -2 19 1 4 3 -2 6 -13 5 -11 0 -14 -3 -6 -6z"/>
<path d="M26840 28073 c-102 -40 -154 -188 -101 -292 12 -22 24 -41 26 -41 3
0 4 48 3 108 -3 125 11 167 71 208 34 23 34 29 1 17z"/>
<path d="M15263 28055 c-3 -9 -3 -18 -1 -21 3 -3 8 4 11 16 6 23 -1 27 -10 5z"/>
<path d="M15331 27734 c0 -11 3 -14 6 -6 3 7 2 16 -1 19 -3 4 -6 -2 -5 -13z"/>
<path d="M15327 27597 c-3 -8 1 -14 8 -14 7 0 11 6 8 14 -3 7 -6 13 -8 13 -2
0 -5 -6 -8 -13z"/>
<path d="M15336 27483 c-6 -14 -5 -15 5 -6 7 7 10 15 7 18 -3 3 -9 -2 -12 -12z"/>
<path d="M15351 27354 c0 -11 3 -14 6 -6 3 7 2 16 -1 19 -3 4 -6 -2 -5 -13z"/>
<path d="M15402 27090 c0 -14 2 -19 5 -12 2 6 2 18 0 25 -3 6 -5 1 -5 -13z"/>
<path d="M15430 26851 c0 -7 -4 -9 -10 -6 -12 8 -13 -5 -1 -23 6 -10 10 -8 14
9 4 13 4 25 2 28 -3 2 -5 -1 -5 -8z"/>
<path d="M15491 26204 c0 -11 3 -14 6 -6 3 7 2 16 -1 19 -3 4 -6 -2 -5 -13z"/>
<path d="M15486 26057 c3 -10 9 -15 12 -12 3 3 0 11 -7 18 -10 9 -11 8 -5 -6z"/>
<path d="M15486 25924 c-3 -9 -4 -19 -1 -22 3 -3 5 1 5 9 0 11 2 11 10 -1 5
-8 10 -10 10 -5 0 6 -4 16 -9 23 -6 11 -10 10 -15 -4z"/>
<path d="M15571 24134 c0 -11 3 -14 6 -6 3 7 2 16 -1 19 -3 4 -6 -2 -5 -13z"/>
<path d="M15726 20552 c-3 -5 1 -9 9 -9 8 0 12 4 9 9 -3 4 -7 8 -9 8 -2 0 -6
-4 -9 -8z"/>
<path d="M6592 19047 c-3 -39 -25 -87 -56 -119 -110 -114 -290 -69 -351 88
l-15 39 5 -49 c15 -144 156 -232 289 -181 51 20 120 90 111 113 -2 7 -1 10 5
7 12 -7 23 52 17 96 -3 29 -4 30 -5 6z"/>
<path d="M6491 18300 c-90 -22 -161 -111 -161 -202 0 -63 19 -106 65 -151 46
-45 92 -61 161 -55 106 9 185 96 185 202 0 133 -126 237 -250 206z"/>
<path d="M6635 17366 c-125 -55 -162 -219 -72 -317 43 -46 74 -65 124 -73 43
-8 123 10 123 26 0 5 4 7 8 4 13 -8 69 54 86 96 22 52 20 110 -5 163 -23 49
-65 89 -82 78 -5 -3 -7 -1 -4 4 18 29 -123 43 -178 19z"/>
<path d="M6879 16461 c-44 -14 -70 -32 -63 -43 4 -6 3 -8 -2 -5 -16 9 -30 -5
-58 -57 -31 -58 -33 -114 -7 -172 21 -46 83 -100 102 -88 7 4 9 3 6 -3 -19
-30 107 -31 164 -3 24 13 37 25 33 32 -4 6 -3 8 3 5 25 -16 73 78 73 144 0
124 -133 225 -251 190z"/>
<path d="M7115 15549 c-38 -11 -94 -64 -111 -106 -24 -56 -12 -173 18 -173 4
0 7 -6 6 -12 -2 -7 3 -12 10 -10 8 1 11 -2 8 -6 -6 -11 22 -39 44 -44 8 -2 18
-7 22 -12 3 -5 30 -11 60 -13 55 -4 123 20 123 44 0 6 4 15 9 20 5 5 6 3 2 -4
-4 -7 -2 -13 3 -13 22 0 62 78 67 131 4 44 1 63 -18 99 -13 25 -29 44 -36 43
-6 -2 -11 3 -9 9 1 7 -18 23 -43 35 -46 24 -101 28 -155 12z m176 -302 c-10
-9 -11 -8 -5 6 3 10 9 15 12 12 3 -3 0 -11 -7 -18z"/>
<path d="M7405 14654 c-76 -41 -111 -95 -113 -177 -3 -63 27 -119 80 -154 34
-23 53 -28 104 -28 37 -1 60 3 57 9 -4 5 1 7 10 3 10 -3 17 -2 17 4 0 6 4 8 9
4 5 -3 17 5 25 17 9 12 16 18 16 13 0 -6 14 13 30 40 25 41 30 58 26 97 -8
104 -77 175 -177 184 -38 3 -63 0 -84 -12z m215 -264 c-6 -11 -13 -20 -16 -20
-2 0 0 9 6 20 6 11 13 20 16 20 2 0 0 -9 -6 -20z m-35 -50 c-3 -5 -11 -10 -16
-10 -6 0 -7 5 -4 10 3 6 11 10 16 10 6 0 7 -4 4 -10z"/>
<path d="M7844 13786 c37 -12 61 -36 37 -36 -6 0 -11 4 -11 9 0 12 -92 34 -99
24 -3 -4 -13 -9 -21 -11 -60 -13 -108 -86 -109 -165 0 -41 3 -56 11 -51 8 5 9
2 5 -10 -7 -17 23 -56 43 -56 5 0 7 -6 4 -13 -3 -8 6 -18 21 -25 21 -10 25
-10 20 0 -4 7 1 4 9 -6 20 -25 106 -33 106 -10 0 8 -4 12 -10 9 -5 -3 -10 -2
-10 3 0 6 7 13 16 16 8 3 12 2 9 -4 -3 -6 1 -10 10 -10 10 0 13 -5 9 -12 -4
-6 10 -1 32 12 50 30 54 34 28 28 -12 -3 -28 -1 -35 4 -11 8 -10 9 3 4 14 -4
17 0 14 22 -1 15 4 34 12 41 12 12 13 11 7 -10 -12 -38 -11 -43 7 -47 11 -2
22 8 33 27 9 18 11 31 5 31 -5 0 -10 -7 -10 -16 0 -9 -5 -12 -12 -8 -8 5 -9 2
-5 -9 3 -10 2 -17 -3 -17 -20 0 -9 29 19 53 23 19 29 31 27 58 -2 19 -4 42 -5
53 -1 12 -6 16 -17 12 -14 -5 -15 -4 -4 8 22 27 -68 98 -140 109 -35 6 -34 6
4 -7z m-84 -41 c-6 -7 -7 -21 -3 -31 5 -14 1 -13 -19 6 -25 25 -25 25 -4 37
25 13 41 6 26 -12z m57 19 c-3 -3 -12 -4 -19 -1 -8 3 -5 6 6 6 11 1 17 -2 13
-5z m133 -53 c0 -12 2 -13 9 -3 7 11 9 10 14 -3 4 -9 3 -13 -3 -10 -6 3 -11
-2 -11 -12 -1 -17 -2 -17 -6 0 -4 17 -6 17 -17 2 -10 -15 -12 -14 -13 5 -1 11
2 18 8 15 5 -4 9 -1 9 4 0 6 -4 11 -10 11 -5 0 -10 4 -10 10 0 5 7 7 15 4 8
-4 15 -14 15 -23z m-210 -11 c0 -5 -2 -10 -4 -10 -3 0 -8 5 -11 10 -3 6 -1 10
4 10 6 0 11 -4 11 -10z m192 -132 c-7 -7 -12 -8 -12 -2 0 14 12 26 19 19 2 -3
-1 -11 -7 -17z m48 12 c0 -5 -7 -10 -16 -10 -8 0 -12 5 -9 10 3 6 10 10 16 10
5 0 9 -4 9 -10z m-71 -73 c-15 -13 -69 -34 -69 -27 0 5 12 13 28 18 28 11 49
15 41 9z m-182 -39 c-3 -8 -6 -5 -6 6 -1 11 2 17 5 13 3 -3 4 -12 1 -19z m193
-2 c0 -2 -7 -6 -15 -10 -8 -3 -15 -1 -15 4 0 6 7 10 15 10 8 0 15 -2 15 -4z"/>
<path d="M7740 13750 c-9 -6 -10 -10 -3 -10 6 0 15 5 18 10 8 12 4 12 -15 0z"/>
<path d="M8168 12933 c-10 -2 -18 -9 -18 -15 0 -6 -3 -8 -6 -5 -11 11 -44 -13
-43 -31 1 -16 2 -16 6 1 2 9 9 17 14 17 6 0 8 -4 5 -9 -9 -13 11 -17 53 -12
l36 5 -30 7 -30 7 33 1 c17 0 32 5 32 11 0 5 -15 7 -32 5 l-33 -5 30 14 c29
14 20 19 -17 9z m-15 -40 c-3 -7 -6 -13 -8 -13 -2 0 -5 6 -8 13 -3 8 1 14 8
14 7 0 11 -6 8 -14z"/>
<path d="M8237 12928 c7 -8 10 -18 6 -22 -4 -4 0 -4 10 0 22 8 22 11 -5 25
-20 11 -21 10 -11 -3z"/>
<path d="M8290 12910 c-9 -6 -10 -10 -3 -10 6 0 15 5 18 10 8 12 4 12 -15 0z"/>
<path d="M8317 12903 c-4 -3 -7 -11 -7 -17 0 -6 4 -5 9 3 12 18 32 5 25 -17
-5 -14 -4 -14 4 -2 16 22 -13 52 -31 33z"/>
<path d="M8065 12850 c-3 -5 -3 -14 0 -20 3 -5 2 -10 -4 -10 -5 0 -8 -10 -6
-21 6 -29 14 -36 14 -13 -1 11 2 31 5 47 6 27 2 35 -9 17z"/>
<path d="M8361 12844 c0 -11 3 -14 6 -6 3 7 2 16 -1 19 -3 4 -6 -2 -5 -13z"/>
<path d="M8041 12765 c0 -5 6 -21 13 -34 l14 -24 7 22 c4 12 4 25 1 28 -3 4
-6 -2 -6 -13 -1 -16 -3 -15 -15 6 -8 14 -14 21 -14 15z"/>
<path d="M8070 12700 c-9 -6 -10 -10 -3 -10 6 0 15 5 18 10 8 12 4 12 -15 0z"/>
<path d="M8098 12693 c-2 -10 3 -24 12 -31 13 -11 11 -12 -10 -6 l-25 6 21
-20 c32 -31 57 -40 79 -31 18 8 17 9 -3 5 -20 -4 -23 -1 -19 15 3 10 1 19 -4
19 -5 0 -9 -7 -9 -16 0 -8 -5 -12 -11 -9 -6 4 -8 13 -5 21 3 7 -1 25 -9 40
-11 22 -14 23 -17 7z"/>
<path d="M8120 12698 c0 -4 4 -8 9 -8 5 0 11 -8 13 -17 3 -13 5 -11 9 7 4 20
1 26 -13 26 -10 0 -18 -4 -18 -8z"/>
<path d="M8384 12702 c3 -6 -1 -17 -9 -25 -17 -17 -20 -31 -5 -22 19 12 31 43
18 51 -6 4 -8 3 -4 -4z"/>
<path d="M8213 12600 c-30 -12 -29 -15 5 -15 31 1 80 24 50 25 -10 0 -18 -4
-18 -10 0 -5 -5 -10 -11 -10 -5 0 -7 5 -4 10 7 12 7 12 -22 0z"/>
<path d="M8546 11898 c3 -5 10 -6 15 -3 13 9 11 12 -6 12 -8 0 -12 -4 -9 -9z"/>
<path d="M2690 8332 c0 -5 -14 -7 -31 -6 -24 2 -29 -1 -24 -13 5 -13 3 -14
-11 -3 -11 10 -18 11 -22 3 -4 -6 -21 -15 -37 -19 -17 -4 -50 -18 -75 -31
-234 -128 -441 -341 -622 -638 -70 -115 -139 -251 -131 -259 4 -3 1 -6 -6 -6
-8 0 -11 -8 -8 -20 3 -11 1 -18 -3 -15 -8 5 -20 -19 -20 -38 1 -4 -6 -15 -15
-24 -9 -8 -14 -22 -11 -29 3 -8 0 -14 -5 -14 -6 0 -9 -9 -6 -20 3 -10 0 -18
-5 -17 -6 1 -13 -4 -16 -12 -2 -8 0 -11 5 -8 6 4 11 -4 11 -18 0 -23 -2 -24
-14 -8 -12 16 -13 13 -9 -20 4 -26 0 -43 -10 -53 -8 -9 -15 -21 -15 -27 0 -7
4 -6 10 3 9 13 10 13 11 0 0 -10 3 -9 9 5 5 12 8 -237 6 -600 -4 -596 -8 -774
-21 -934 -5 -55 -3 -71 6 -66 9 6 10 -8 7 -56 -3 -35 -3 -58 0 -51 3 10 8 8
19 -5 8 -10 12 -13 9 -7 -3 6 0 33 8 60 19 68 47 226 49 277 1 9 4 17 8 17 3
0 9 19 13 43 10 63 12 70 55 242 167 672 413 1230 684 1548 17 21 31 43 29 48
-1 5 1 8 5 7 14 -5 64 46 59 59 -3 8 1 10 11 6 11 -4 14 -2 9 5 -4 7 -1 12 7
12 8 0 29 13 46 29 18 17 34 29 36 28 2 -1 6 1 9 5 3 5 3 6 0 4 -3 -3 -12 1
-19 7 -10 9 -10 15 -1 26 8 10 11 97 11 290 0 259 1 276 18 275 14 -2 15 1 6
12 -13 16 -19 18 -19 6z m-34 -627 c-1 -8 -5 -17 -8 -21 -5 -4 -4 16 1 34 3 9
9 -1 7 -13z"/>
<path d="M2730 8336 c0 -2 11 -6 25 -8 13 -3 22 -1 19 3 -5 9 -44 13 -44 5z"/>
<path d="M15721 7904 c0 -11 3 -14 6 -6 3 7 2 16 -1 19 -3 4 -6 -2 -5 -13z"/>
<path d="M2727 7799 c4 -13 8 -18 11 -10 2 7 -1 18 -6 23 -8 8 -9 4 -5 -13z"/>
<path d="M2685 7749 c-4 -6 -4 -13 -1 -16 3 -4 6 -1 6 6 0 7 5 9 10 6 6 -3 10
-1 10 4 0 14 -17 14 -25 0z"/>
<path d="M2720 7751 c0 -6 4 -13 10 -16 6 -3 7 1 4 9 -7 18 -14 21 -14 7z"/>
<path d="M15765 7429 c-4 -6 -5 -12 -2 -15 2 -3 7 2 10 11 7 17 1 20 -8 4z"/>
<path d="M15773 7393 c-9 -3 -10 -10 -3 -24 8 -14 7 -19 -2 -19 -10 0 -10 -2
-1 -8 8 -5 9 -19 4 -45 -5 -21 -5 -35 0 -31 14 8 11 -60 -3 -75 -8 -8 -8 -11
-2 -8 7 4 14 -6 18 -26 4 -19 2 -33 -4 -35 -16 -6 -12 -37 10 -65 14 -18 17
-26 8 -29 -10 -4 -14 -146 -16 -664 -1 -362 -4 -811 -5 -997 -2 -317 -1 -337
16 -337 16 0 17 -2 1 -31 -8 -17 -11 -28 -6 -25 6 3 13 -1 16 -10 4 -10 2 -13
-7 -8 -9 6 -9 5 0 -8 7 -8 10 -18 6 -21 -3 -4 -1 -7 5 -7 7 0 11 -3 11 -7 -3
-18 2 -31 21 -53 11 -13 20 -33 20 -45 0 -13 10 -30 23 -39 12 -9 16 -14 10
-11 -8 4 -11 1 -7 -9 3 -9 11 -13 17 -9 6 3 7 1 3 -5 -7 -12 57 -136 66 -127
2 3 5 -1 5 -8 0 -16 79 -139 148 -229 122 -159 243 -276 387 -375 63 -44 159
-95 165 -89 3 3 12 -1 20 -9 8 -8 23 -15 34 -15 11 0 29 -4 39 -10 22 -12 53
-3 43 13 -4 6 4 8 23 3 29 -7 29 -7 7 9 -22 15 -22 19 -19 218 2 111 5 227 8
257 2 30 -1 61 -6 68 -5 7 -3 18 5 29 13 15 12 15 -9 4 -27 -15 -42 -7 -22 12
10 10 11 9 5 -2 -5 -9 -4 -12 3 -8 14 9 9 36 -9 48 -22 14 -33 11 -19 -6 11
-13 10 -14 -4 -9 -10 4 -14 13 -11 24 3 10 -2 23 -12 31 -17 13 -17 13 -3 -6
14 -18 13 -19 -1 -8 -9 7 -19 10 -23 6 -4 -4 -4 -1 -1 8 6 16 -50 86 -66 81
-5 -1 -8 1 -7 5 2 5 -16 33 -38 63 -36 49 -85 123 -160 241 -42 67 -143 276
-203 421 -108 261 -220 630 -296 983 -57 261 -64 298 -70 345 -9 64 -24 140
-30 149 -2 4 -7 46 -11 92 -3 46 -10 86 -14 89 -8 5 -15 67 -21 175 -2 37 -3
36 -9 -15 l-7 -55 -3 65 c-7 114 -6 135 5 149 8 11 7 13 -4 7 -10 -7 -12 -3
-6 13 3 11 5 21 3 20 -2 0 -9 -3 -15 -6z"/>
<path d="M15768 7010 c6 -64 12 -79 12 -27 0 19 3 44 6 54 5 14 4 15 -4 4 -8
-11 -11 -10 -15 5 -2 10 -2 -6 1 -36z"/>
<path d="M1586 6983 c-4 -9 -3 -20 1 -24 4 -4 9 3 9 17 2 28 -1 31 -10 7z"/>
<path d="M1592 6890 c0 -14 2 -19 5 -12 2 6 2 18 0 25 -3 6 -5 1 -5 -13z"/>
<path d="M1601 5378 c0 -39 3 -48 9 -33 12 28 12 85 0 85 -5 0 -10 -24 -9 -52z"/>
<path d="M1613 5309 c10 -6 17 -22 17 -41 0 -30 1 -31 15 -12 17 22 19 50 5
59 -7 4 -9 -3 -5 -22 l5 -28 -11 28 c-6 15 -18 27 -27 27 -15 -1 -15 -2 1 -11z"/>
<path d="M15740 5240 c0 -11 4 -20 9 -20 5 0 7 9 4 20 -3 11 -7 20 -9 20 -2 0
-4 -9 -4 -20z"/>
<path d="M1611 5224 c0 -11 3 -14 6 -6 3 7 2 16 -1 19 -3 4 -6 -2 -5 -13z"/>
<path d="M15725 5191 c5 -34 24 -66 33 -56 3 2 0 10 -5 17 -6 7 -15 27 -22 43
l-11 30 5 -34z"/>
<path d="M15751 5184 c0 -11 3 -14 6 -6 3 7 2 16 -1 19 -3 4 -6 -2 -5 -13z"/>
<path d="M1611 5134 c0 -11 3 -14 6 -6 3 7 2 16 -1 19 -3 4 -6 -2 -5 -13z"/>
<path d="M1600 5099 c0 -15 18 -19 23 -6 3 8 -1 14 -9 14 -8 0 -14 -4 -14 -8z"/>
<path d="M15776 5003 c-6 -14 -5 -15 5 -6 7 7 10 15 7 18 -3 3 -9 -2 -12 -12z"/>
<path d="M16883 4413 c0 -7 6 -13 13 -13 6 0 14 6 17 13 3 7 -3 13 -12 13 -10
0 -18 -6 -18 -13z"/>
<path d="M16930 4416 c0 -2 7 -7 16 -10 8 -3 12 -2 9 4 -6 10 -25 14 -25 6z"/>
</g>
</svg>
